# xmcd CD database file
#
# Track frame offsets:
#	150
#	25240
#	44419
#	65298
#	90075
#	105941
#	118130
#	142405
#	156540
#	174519
#
# Disc length: 2384 seconds
#
# Revision: 0
# Processed by: cddbd v1.5.1PL0 Copyright (c) Steve Scherf et al.
# Submitted via: CDex 1.51
#
DISCID=83094e0a
DTITLE=cathie rae - time out
DYEAR=2002
DGENRE=Jazz
TTITLE0=save your love for me
TTITLE1=rio de janeiro blue
TTITLE2=dangerous type
TTITLE3=almost blue
TTITLE4=you and the night and the music
TTITLE5=never will i marry
TTITLE6=skylark
TTITLE7=colourful place
TTITLE8=old devil moon
TTITLE9=you are my sunshine
EXTD=YEAR: 2002
EXTT0=
EXTT1=
EXTT2=
EXTT3=
EXTT4=
EXTT5=
EXTT6=
EXTT7=
EXTT8=
EXTT9=
PLAYORDER=
